# xmcd
#
# Track frame offsets: 
#        150
#        12549
#        26518
#        40010
#        53449
#
# Disc length: 925 seconds
#
# Revision: 0
# Processed by: cddbd v1.5.2PL0 Copyright (c) Steve Scherf et al.
# Submitted via: ExactAudioCopy v1.3
#
DISCID=30039b05
DTITLE=The Barefoot Movement - Rise and Fly
DYEAR=2020
DGENRE=Bluegrass
TTITLE0=Early In The Morning
TTITLE1=Doin' Alright
TTITLE2=Every Little Thing
TTITLE3=Lonely Mississippi Blues
TTITLE4=At The End Of The Day
EXTD=
EXTT0=
EXTT1=
EXTT2=
EXTT3=
EXTT4=
PLAYORDER=
